<!DOCTYPE svg PUBLIC "-//W3C//DTD SVG 1.1//EN" "http://www.w3.org/Graphics/SVG/1.1/DTD/svg11.dtd" [
	<!ENTITY ns_flows "http://ns.adobe.com/Flows/1.0/">
]><svg xmlns="http://www.w3.org/2000/svg" width="96" height="96" overflow="visible"><path d="M48.07 47.746l-.07-.002-.071.002c-5.957 0-11.206-1.508-14.308 1.34-1.859 1.709-2.642 3.768-2.642 5.985 0 9.261 7.42 10.398 16.949 10.398h.142c9.529 0 16.949-1.138 16.949-10.398 0-2.218-.783-4.276-2.641-5.985-3.103-2.848-8.351-1.34-14.308-1.34zm-8.102 12.655c-1.813 0-3.283-2.036-3.283-4.547s1.47-4.546 3.283-4.546 3.285 2.035 3.285 4.546-1.472 4.547-3.285 4.547zm16.063 0c-1.814 0-3.285-2.036-3.285-4.547s1.471-4.546 3.285-4.546c1.812 0 3.283 2.035 3.283 4.546s-1.471 4.547-3.283 4.547zm-8.031-60.401c-26.511 0-48 21.49-48 48s21.489 48 48 48c26.509 0 48-21.49 48-48s-21.491-48-48-48zm4.378 67.701l-4.378.004-4.379-.004c-3.803 0-18.863-.291-18.863-18.445 0-4.177 1.432-7.233 3.775-9.778-.374-.923-.393-6.165 1.602-11.183 0 0 4.576.502 11.5 5.253 1.451-.401 3.908-.601 6.365-.601 2.455 0 4.912.199 6.365.601 6.924-4.751 11.498-5.253 11.498-5.253 1.996 5.018 1.977 10.26 1.604 11.183 2.344 2.545 3.775 5.602 3.775 9.778 0 18.154-15.061 18.445-18.864 18.445z"/></svg>