<?xml version="1.0" encoding="utf-8"?>
<!-- Generator: Adobe Illustrator 15.0.2, SVG Export Plug-In . SVG Version: 6.00 Build 0)  -->
<!DOCTYPE svg PUBLIC "-//W3C//DTD SVG 1.1//EN" "http://www.w3.org/Graphics/SVG/1.1/DTD/svg11.dtd">
<svg version="1.1" id="レイヤー_1" xmlns="http://www.w3.org/2000/svg" xmlns:xlink="http://www.w3.org/1999/xlink" x="0px"
	 y="0px" width="212.079px" height="305.489px" viewBox="0 0 212.079 305.489" enable-background="new 0 0 212.079 305.489"
	 xml:space="preserve">
<path fill="#1F2A33" d="M181.021,74.98L106.039,0L31.06,74.98c-41.413,41.413-41.413,108.549-0.001,149.961
	c41.413,41.412,108.549,41.412,149.962,0C222.432,183.53,222.432,116.393,181.021,74.98z"/>
<path fill="#FFFFFF" d="M156.019,203.277c-27.603,27.615-72.356,27.617-99.969,0c-27.601-27.606-27.601-72.364,0.001-99.967
	c27.612-27.61,72.368-27.61,99.968,0C183.642,130.913,183.64,175.668,156.019,203.277z"/>
<path fill="#E74C3C" d="M131.038,178.29c-13.81,13.793-36.188,13.795-49.987,0c-13.809-13.808-13.809-36.187,0-49.987
	c13.8-13.801,36.178-13.801,49.987-0.001C144.831,142.104,144.829,164.48,131.038,178.29z"/>
</svg>
