<?xml-stylesheet type="text/css" href="svg.css" ?>
<svg xmlns="http://www.w3.org/2000/svg" width="212.079" height="256">
		<path fill="#0f1f24" d="M181.021 74.98l-74.982-74.98-74.979 74.98c-41.413 41.413-41.413 108.55-.001 149.961 41.413 41.412 108.549 41.412 149.962 0 41.411-41.411 41.411-108.548 0-149.961z" id="symbol-background"/>
		<path fill="#fff" d="M156.019 203.277c-27.602 27.616-72.356 27.618-99.969 0-27.601-27.606-27.601-72.364.001-99.967 27.612-27.61 72.367-27.61 99.968 0 27.623 27.603 27.621 72.359 0 99.967z" id="symbol-foreground"/>
		<path fill="#C1371F" d="M131.038 178.29c-13.81 13.793-36.188 13.795-49.987 0-13.809-13.808-13.809-36.186 0-49.987 13.8-13.801 36.178-13.801 49.987-.001 13.793 13.802 13.791 36.178 0 49.988z" id="symbol-eye"/>
</svg>