<?xml version="1.0" encoding="utf-8"?>


<!-- The icon can be used freely in both personal and commercial projects with no attribution required, but always appreciated. 
You may NOT sub-license, resell, rent, redistribute or otherwise transfer the icon without express written permission from iconmonstr.com -->


<!DOCTYPE svg PUBLIC "-//W3C//DTD SVG 1.1//EN" "http://www.w3.org/Graphics/SVG/1.1/DTD/svg11.dtd">

<svg version="1.1" xmlns="http://www.w3.org/2000/svg" xmlns:xlink="http://www.w3.org/1999/xlink" x="0px" y="0px"

	 width="512px" height="512px" viewBox="0 0 512 512" enable-background="new 0 0 512 512" xml:space="preserve">

<path id="tag-4-icon" d="M158.594,123.51c9.122,9.121,9.122,23.962,0,33.083c-9.14,9.138-23.939,9.144-33.081,0

	c-9.121-9.122-9.121-23.962,0-33.084C134.651,114.368,149.449,114.366,158.594,123.51z M462,277.368L277.369,461.999L50,234.5

	V50.001h184.5L462,277.368z M178.115,103.989c-9.632-9.633-22.441-14.938-36.062-14.938c-13.623,0-26.431,5.306-36.062,14.938

	c-19.885,19.885-19.885,52.24,0,72.126c9.632,9.632,22.439,14.937,36.062,14.937c13.621,0,26.431-5.305,36.062-14.937

	C198,156.229,198,123.874,178.115,103.989z"/>

</svg>

