<?xml version="1.0" encoding="utf-8"?>


<!-- The icon can be used freely in both personal and commercial projects with no attribution required, but always appreciated. 
You may NOT sub-license, resell, rent, redistribute or otherwise transfer the icon without express written permission from iconmonstr.com -->


<!DOCTYPE svg PUBLIC "-//W3C//DTD SVG 1.1//EN" "http://www.w3.org/Graphics/SVG/1.1/DTD/svg11.dtd">

<svg version="1.1" xmlns="http://www.w3.org/2000/svg" xmlns:xlink="http://www.w3.org/1999/xlink" x="0px" y="0px"

	 width="512px" height="512px" viewBox="0 0 512 512" enable-background="new 0 0 512 512" xml:space="preserve">

<path id="tag-5-icon" d="M405.405,277.378L277.378,405.405L90.013,217.934V90.014h127.918L405.405,277.378 M462,277.368L234.499,50

	L50,50.001v184.5L277.37,462L462,277.368L462,277.368z M206.408,132.281c-9.632-9.632-22.44-14.938-36.062-14.937

	c-13.623-0.001-26.431,5.304-36.062,14.938c-19.886,19.884-19.885,52.241,0,72.125c9.633,9.633,22.439,14.938,36.062,14.937

	c13.622,0.001,26.43-5.304,36.062-14.937C226.293,184.522,226.293,152.167,206.408,132.281z M155.458,183.233

	c-8.209-8.209-8.208-21.568,0-29.777c8.227-8.226,21.544-8.229,29.774,0c8.209,8.21,8.209,21.567-0.001,29.775

	C177.008,191.456,163.687,191.462,155.458,183.233z"/>

</svg>

