<?xml version="1.0" encoding="utf-8"?>


<!-- The icon can be used freely in both personal and commercial projects with no attribution required, but always appreciated. 
You may NOT sub-license, resell, rent, redistribute or otherwise transfer the icon without express written permission from iconmonstr.com -->


<!DOCTYPE svg PUBLIC "-//W3C//DTD SVG 1.1//EN" "http://www.w3.org/Graphics/SVG/1.1/DTD/svg11.dtd">

<svg version="1.1" xmlns="http://www.w3.org/2000/svg" xmlns:xlink="http://www.w3.org/1999/xlink" x="0px" y="0px"

	 width="512px" height="512px" viewBox="0 0 512 512" enable-background="new 0 0 512 512" xml:space="preserve">

<path id="pinterest-circle-outline-icon" d="M256.417,90c44.34,0,86.026,17.267,117.38,48.62

	c31.354,31.354,48.62,73.04,48.62,117.38c0,44.34-17.267,86.026-48.62,117.38c-31.354,31.353-73.04,48.62-117.38,48.62

	s-86.026-17.268-117.38-48.62c-31.354-31.354-48.62-73.04-48.62-117.38c0-44.34,17.267-86.026,48.62-117.38

	C170.391,107.267,212.077,90,256.417,90 M256.417,50c-113.771,0-206,92.229-206,206s92.229,206,206,206s206-92.229,206-206

	S370.188,50,256.417,50L256.417,50z M264.891,149.198c-63.75,0-95.895,45.708-95.895,83.822c0,23.078,8.737,43.609,27.477,51.262

	c3.073,1.256,5.827,0.044,6.717-3.358c0.621-2.355,2.088-8.297,2.741-10.769c0.899-3.366,0.552-4.546-1.929-7.479

	c-5.403-6.374-8.856-14.626-8.856-26.313c0-33.911,25.37-64.266,66.063-64.266c36.031,0,55.829,22.018,55.829,51.421

	c0,38.688-17.122,71.343-42.54,71.343c-14.038,0-24.545-11.609-21.178-25.848c4.034-16.999,11.848-35.343,11.848-47.613

	c0-10.983-5.897-20.144-18.098-20.144c-14.351,0-25.878,14.845-25.878,34.73c0,12.665,4.28,21.233,4.28,21.233

	s-14.685,62.22-17.258,73.116c-5.128,21.701-0.773,48.305-0.402,50.99c0.215,1.592,2.261,1.971,3.187,0.769

	c1.324-1.728,18.416-22.828,24.225-43.91c1.646-5.97,9.44-36.884,9.44-36.884c4.661,8.893,18.287,16.727,32.774,16.727

	c43.136,0,72.4-39.324,72.4-91.96C349.839,186.265,316.127,149.198,264.891,149.198z"/>

</svg>

